<svg id="Camada_1" data-name="Camada 1" xmlns="http://www.w3.org/2000/svg" viewBox="0 0 1246.15 569.55">
  <defs>
    <style>
      .cls-1 {
        fill: #fff;
        stroke-width: 12px;
      }

      .cls-1, .cls-2 {
        stroke: #000;
      }

      .cls-1, .cls-2, .cls-3, .cls-4, .cls-5, .cls-6 {
        stroke-miterlimit: 10;
      }

      .cls-2, .cls-3, .cls-4, .cls-6 {
        fill: none;
      }

      .cls-3, .cls-6 {
        stroke: #d67049;
      }

      .cls-3, .cls-4 {
        stroke-width: 4px;
      }

      .cls-4, .cls-5 {
        stroke: #3f37c9;
      }

      .cls-5 {
        fill: #3f37c9;
      }
    </style>
  </defs>
  <path class="cls-1" d="M-20.14,814.2" transform="translate(-12.28 -7.84)"/>
  <path class="cls-1" d="M-.91,683.44" transform="translate(-12.28 -7.84)"/>
  <path class="cls-2" d="M59.5,153" transform="translate(-12.28 -7.84)"/>
  <path class="cls-3" d="M121,13.21a83.41,83.41,0,1,1-83.5,83.33" transform="translate(-12.28 -7.84)"/>
  <path class="cls-4" d="M121,37.32A59.31,59.31,0,1,1,61.64,96.56" transform="translate(-12.28 -7.84)"/>
  <circle class="cls-5" cx="49.36" cy="85.41" r="4"/>
  <circle class="cls-6" cx="25.25" cy="85.41" r="4"/>
  <circle class="cls-5" cx="104.64" cy="29.48" r="4"/>
  <circle class="cls-6" cx="104.64" cy="5.38" r="4"/>
  <path class="cls-3" d="M279.65,103.65a46.91,46.91,0,1,1,46.9-46.91" transform="translate(-12.28 -7.84)"/>
  <path class="cls-3" d="M279.65,103.65a28.72,28.72,0,1,1-28.72,28.72" transform="translate(-12.28 -7.84)"/>
  <path class="cls-4" d="M255.36,52c-4.43,8,3.29,27.76,21.48,32.55,22,5.78,50,18.71,49.71,42.6-.32,32.52-11.71,52-49.71,52-29.74,0-44.09-16-44.1-51.95" transform="translate(-12.28 -7.84)"/>
  <circle class="cls-5" cx="220.46" cy="115.75" r="4"/>
  <circle class="cls-6" cx="238.65" cy="120.78" r="4"/>
  <circle class="cls-5" cx="243.67" cy="41.61" r="4"/>
  <circle class="cls-6" cx="314.27" cy="52.42" r="4"/>
  <line class="cls-3" x1="35.17" y1="193.45" x2="35.17" y2="327.76"/>
  <path class="cls-2" d="M80.51,309.32" transform="translate(-12.28 -7.84)"/>
  <path class="cls-3" d="M47.45,335.48c0,15.66,14.7,28.35,32.83,28.35h74.16" transform="translate(-12.28 -7.84)"/>
  <path class="cls-2" d="M226,389.5" transform="translate(-12.28 -7.84)"/>
  <line class="cls-4" x1="47.45" y1="225.31" x2="47.45" y2="318.71"/>
  <path class="cls-2" d="M83.73,305.32" transform="translate(-12.28 -7.84)"/>
  <path class="cls-4" d="M59.87,326.35c0,11.62,10.05,21,22.44,21H133" transform="translate(-12.28 -7.84)"/>
  <path class="cls-2" d="M39.11,300" transform="translate(-12.28 -7.84)"/>
  <circle class="cls-6" cx="34.95" cy="190.19" r="4"/>
  <circle class="cls-5" cx="47.45" cy="221.43" r="4"/>
  <circle class="cls-5" cx="123.17" cy="339.55" r="4"/>
  <circle class="cls-6" cx="145.52" cy="356" r="3.15"/>
  <path class="cls-2" d="M198.06,370.69" transform="translate(-12.28 -7.84)"/>
  <path class="cls-3" d="M195.67,202.31v125c-.83,22.54-.18,39.79,18.31,42.2h93.41" transform="translate(-12.28 -7.84)"/>
  <path class="cls-3" d="M325.7,209.12V329.05c.84,21.62.17,38.17-18.81,40.48" transform="translate(-12.28 -7.84)"/>
  <path class="cls-2" d="M80.44,300.58" transform="translate(-12.28 -7.84)"/>
  <path class="cls-4" d="M217.42,229v93.25c-.56,16.81-.11,29.67,12.6,31.47H294.3" transform="translate(-12.28 -7.84)"/>
  <path class="cls-4" d="M306.89,249v78.3c.6,14.12.13,24.92-13.34,26.43" transform="translate(-12.28 -7.84)"/>
  <circle class="cls-6" cx="183.17" cy="190.91" r="4"/>
  <circle class="cls-5" cx="205" cy="217.13" r="4"/>
  <circle class="cls-5" cx="294.77" cy="237.12" r="4"/>
  <circle class="cls-6" cx="313.64" cy="197.04" r="4"/>
  <path class="cls-2" d="M30.57,556.88" transform="translate(-12.28 -7.84)"/>
  <path class="cls-3" d="M72.72,461.11a57.14,57.14,0,1,1-57.2,57.08" transform="translate(-12.28 -7.84)"/>
  <path class="cls-4" d="M72.7,477.62A40.63,40.63,0,1,1,32,518.21" transform="translate(-12.28 -7.84)"/>
  <circle class="cls-5" cx="19.76" cy="508.1" r="2.74"/>
  <circle class="cls-6" cx="3.24" cy="508.1" r="2.74"/>
  <circle class="cls-5" cx="57.63" cy="469.78" r="2.74"/>
  <circle class="cls-6" cx="57.63" cy="453.27" r="2.74"/>
  <line class="cls-3" x1="219.39" y1="455.44" x2="219.39" y2="546.19"/>
  <path class="cls-2" d="M254,536.27" transform="translate(-12.28 -7.84)"/>
  <path class="cls-3" d="M231.67,554c0,10.58,9.93,19.16,22.19,19.16H304" transform="translate(-12.28 -7.84)"/>
  <line class="cls-4" x1="227.69" y1="476.97" x2="227.69" y2="540.07"/>
  <path class="cls-2" d="M256.19,533.57" transform="translate(-12.28 -7.84)"/>
  <path class="cls-4" d="M240.07,547.78c0,7.85,6.78,14.22,15.16,14.22h34.24" transform="translate(-12.28 -7.84)"/>
  <path class="cls-2" d="M226,530" transform="translate(-12.28 -7.84)"/>
  <circle class="cls-6" cx="219.25" cy="453.23" r="2.7"/>
  <circle class="cls-5" cx="227.69" cy="474.34" r="2.7"/>
  <circle class="cls-5" cx="278.85" cy="554.16" r="2.7"/>
  <circle class="cls-6" cx="294.04" cy="565.35" r="2.05"/>
  <path class="cls-2" d="M254,530.37" transform="translate(-12.28 -7.84)"/>
  <path class="cls-3" d="M331.48,463.79v81c-.54,14.6-.11,25.78,11.86,27.34h60.51" transform="translate(-12.28 -7.84)"/>
  <path class="cls-3" d="M415.71,468.21V545.9c.55,14,.12,24.72-12.18,26.22" transform="translate(-12.28 -7.84)"/>
  <path class="cls-4" d="M345.57,481.07v60.41c-.36,10.89-.07,19.23,8.16,20.39h41.64" transform="translate(-12.28 -7.84)"/>
  <path class="cls-4" d="M403.53,494v50.73c.39,9.14.08,16.14-8.64,17.12" transform="translate(-12.28 -7.84)"/>
  <circle class="cls-6" cx="319.06" cy="453.64" r="2.59"/>
  <circle class="cls-5" cx="333.2" cy="470.63" r="2.59"/>
  <circle class="cls-5" cx="391.35" cy="483.58" r="2.59"/>
  <circle class="cls-6" cx="403.58" cy="457.62" r="2.59"/>
  <path class="cls-3" d="M179.39,522.14A31.64,31.64,0,1,1,211,490.51" transform="translate(-12.28 -7.84)"/>
  <path class="cls-3" d="M179.39,522.14A19.37,19.37,0,1,1,160,541.51" transform="translate(-12.28 -7.84)"/>
  <path class="cls-4" d="M163,487.28c-3,5.4,2.22,18.72,14.48,22,14.83,3.9,33.7,12.62,33.53,28.73-.22,21.94-7.9,35-33.53,35-20.05,0-29.73-10.78-29.74-35" transform="translate(-12.28 -7.84)"/>
  <circle class="cls-6" cx="147.74" cy="531.14" r="2.7"/>
  <circle class="cls-5" cx="151.13" cy="477.74" r="2.7"/>
  <circle class="cls-6" cx="198.74" cy="485.04" r="2.7"/>
  <path class="cls-2" d="M883.43,246.6" transform="translate(-12.28 -7.84)"/>
  <path class="cls-3" d="M968.45,53.45A115.25,115.25,0,1,1,853.08,168.58" transform="translate(-12.28 -7.84)"/>
  <path class="cls-4" d="M968.41,86.76a81.94,81.94,0,1,1-82,81.85" transform="translate(-12.28 -7.84)"/>
  <circle class="cls-5" cx="874.11" cy="156.19" r="5.53"/>
  <circle class="cls-6" cx="840.8" cy="156.19" r="5.53"/>
  <circle class="cls-5" cx="950.5" cy="78.92" r="5.53"/>
  <circle class="cls-6" cx="950.5" cy="45.61" r="5.53"/>
  <path class="cls-3" d="M1187.6,178.41a64.81,64.81,0,1,1,64.81-64.81" transform="translate(-12.28 -7.84)"/>
  <path class="cls-3" d="M1187.6,178.41a39.68,39.68,0,1,1-39.68,39.67" transform="translate(-12.28 -7.84)"/>
  <path class="cls-4" d="M1154,107c-6.12,11.08,4.55,38.36,29.68,45,30.37,8,69,25.86,68.69,58.86-.46,44.94-16.19,71.79-68.69,71.79-41.09,0-60.91-22.08-60.93-71.79" transform="translate(-12.28 -7.84)"/>
  <circle class="cls-5" cx="1110.51" cy="198.12" r="5.53"/>
  <circle class="cls-6" cx="1135.64" cy="205.06" r="5.53"/>
  <circle class="cls-5" cx="1142.58" cy="95.67" r="5.53"/>
  <circle class="cls-6" cx="1240.13" cy="110.61" r="5.53"/>
  <line class="cls-3" x1="854.5" y1="305.47" x2="854.5" y2="491.03"/>
  <path class="cls-2" d="M912.46,462.57" transform="translate(-12.28 -7.84)"/>
  <path class="cls-3" d="M866.78,498.71c0,21.63,20.32,39.17,45.37,39.17h102.46" transform="translate(-12.28 -7.84)"/>
  <path class="cls-2" d="M1087.37,554.82" transform="translate(-12.28 -7.84)"/>
  <line class="cls-4" x1="871.48" y1="349.48" x2="871.48" y2="478.52"/>
  <path class="cls-2" d="M916.92,457" transform="translate(-12.28 -7.84)"/>
  <path class="cls-4" d="M884,486.1c0,16,13.88,29.06,31,29.06h70" transform="translate(-12.28 -7.84)"/>
  <path class="cls-2" d="M858.26,449.66" transform="translate(-12.28 -7.84)"/>
  <circle class="cls-6" cx="854.21" cy="300.95" r="5.53"/>
  <circle class="cls-5" cx="871.48" cy="344.12" r="5.53"/>
  <circle class="cls-5" cx="976.09" cy="507.32" r="5.53"/>
  <circle class="cls-6" cx="1006.98" cy="530.04" r="4.35"/>
  <path class="cls-2" d="M1078.88,547.35" transform="translate(-12.28 -7.84)"/>
  <path class="cls-3" d="M1071.57,314.71V487.45c-1.14,31.14-.24,55,25.3,58.3h129.06" transform="translate(-12.28 -7.84)"/>
  <path class="cls-3" d="M1251.22,324.13v165.7c1.17,29.87.25,52.73-26,55.92" transform="translate(-12.28 -7.84)"/>
  <path class="cls-2" d="M912.37,450.49" transform="translate(-12.28 -7.84)"/>
  <path class="cls-4" d="M1101.63,351.57V480.41c-.78,23.22-.16,41,17.41,43.49h88.8" transform="translate(-12.28 -7.84)"/>
  <path class="cls-4" d="M1225.24,379.19V487.38c.83,19.5.17,34.43-18.43,36.52" transform="translate(-12.28 -7.84)"/>
  <circle class="cls-6" cx="1058.99" cy="301.95" r="5.53"/>
  <circle class="cls-5" cx="1089.15" cy="338.18" r="5.53"/>
  <circle class="cls-5" cx="1213.18" cy="365.8" r="5.53"/>
  <circle class="cls-6" cx="1239.25" cy="310.42" r="5.53"/>
</svg>
